<svg width="184" height="200" viewBox="0 0 184 200" fill="none" xmlns="http://www.w3.org/2000/svg">
<path d="M31.0784 200C48.2425 200 62.1567 186.104 62.1567 168.962C62.1567 151.819 48.2425 137.923 31.0784 137.923C13.9143 137.923 0 151.819 0 168.962C0 186.104 13.9143 200 31.0784 200Z" fill="#9B6232"/>
<path d="M129.713 127.252C126.784 149.57 107.654 166.839 84.5033 166.839C80.9416 166.839 77.4949 166.437 74.163 165.691C72.6694 146.127 58.1355 130.235 39.2357 126.621C36.5932 126.104 33.8932 125.875 31.1358 125.875C22.2317 125.875 14.0169 128.571 7.12332 133.161C2.52763 122.834 0 111.474 0 99.541C0 55.1922 34.8124 19.0476 78.5863 16.6954C84.0437 16.9822 89.3862 17.8428 94.4989 19.2197L93.0053 20.9409C60.261 21.0556 33.7209 47.619 33.7209 80.3787C33.7209 90.4762 36.2485 100 40.7293 108.376C50.7249 127.08 70.4864 139.816 93.1776 139.816C106.965 139.759 119.66 135.055 129.713 127.252Z" fill="#9B6232"/>
<path d="M184 104.188C184 147.275 149.015 182.215 105.873 182.215C98.8648 182.215 92.0862 181.297 85.6522 179.575L87.1458 177.854C113.284 177.797 135.458 160.872 143.328 137.407C145.339 131.44 146.43 125.072 146.43 118.417C146.43 85.5995 119.833 59.0361 86.9735 59.0361C72.4396 59.0361 59.1695 64.257 48.8292 72.8629C56.4696 48.5944 79.1608 31.0384 105.931 31.0384C106.563 54.2742 125.635 72.9202 149.073 72.9202C153.668 72.9202 158.149 72.1744 162.343 70.8548C166.421 69.5353 170.213 67.642 173.66 65.2897C180.209 76.7642 184 90.0746 184 104.188Z" fill="#183891"/>
<path d="M149.073 62.0769C166.237 62.0769 180.151 48.1805 180.151 31.0384C180.151 13.8964 166.237 0 149.073 0C131.909 0 117.994 13.8964 117.994 31.0384C117.994 48.1805 131.909 62.0769 149.073 62.0769Z" fill="#183891"/>
</svg>
