<svg width="20" height="18" viewBox="0 0 20 18" fill="none" xmlns="http://www.w3.org/2000/svg">
<path d="M0.838147 10.043C0.981339 9.72086 1.22477 9.62173 1.55888 9.62669C2.37985 9.64156 3.20559 9.63165 4.05519 9.63165C4.05519 9.55235 4.05519 9.48296 4.05519 9.40862C4.05519 7.39638 4.05042 5.37918 4.05519 3.36694C4.05996 2.10805 4.88093 1.06723 6.06942 0.804553C7.3486 0.522046 8.6612 1.36461 8.99531 2.68793C9.02395 2.80192 9.06213 2.85644 9.18623 2.88122C10.1933 3.08939 10.8807 3.96169 10.895 5.03224C10.895 5.20075 10.8998 5.36927 10.895 5.53282C10.8902 5.8748 10.6802 6.11766 10.3556 6.12262C9.15282 6.12757 7.94524 6.12757 6.74242 6.12262C6.42263 6.12262 6.21262 5.87976 6.20784 5.54769C6.20307 5.12641 6.17443 4.70513 6.3224 4.29871C6.58969 3.58006 7.07654 3.11417 7.7925 2.90601C7.82591 2.89609 7.85932 2.88618 7.89273 2.87627C7.89751 2.87627 7.90228 2.86636 7.90705 2.8614C7.7209 2.10309 6.80447 1.66694 6.04078 1.97423C5.5062 2.1923 5.1339 2.72758 5.1339 3.32233C5.12913 5.399 5.1339 7.47568 5.1339 9.55235C5.1339 9.57217 5.13868 9.58704 5.14345 9.6366C5.21504 9.6366 5.29141 9.6366 5.36301 9.6366C9.72559 9.6366 14.0834 9.6366 18.446 9.63165C18.7801 9.63165 19.0235 9.72086 19.1667 10.043C19.1667 10.1421 19.1667 10.2413 19.1667 10.3404C19.0331 10.6328 18.8183 10.7865 18.4985 10.7468C18.3935 10.7319 18.3601 10.7865 18.3362 10.8905C18.1978 11.5943 18.0403 12.2932 17.9114 12.9969C17.7205 14.0278 17.2575 14.8853 16.4604 15.5445C16.4365 15.5643 16.4222 15.5891 16.3983 15.6138C16.5415 15.8716 16.6895 16.1194 16.8088 16.3821C16.8661 16.5109 16.9043 16.6695 16.8852 16.8034C16.8518 17.0462 16.6895 17.1899 16.4556 17.2395C16.2456 17.2841 16.0308 17.185 15.9067 16.9719C15.7492 16.6993 15.5965 16.4168 15.4389 16.1293C14.8089 16.392 14.1598 16.3969 13.5106 16.3969C11.21 16.392 8.90462 16.392 6.60401 16.3969C5.91191 16.3969 5.21982 16.4118 4.55159 16.1293C4.39885 16.4069 4.25089 16.6745 4.10292 16.9421C3.96928 17.1751 3.75449 17.2841 3.53493 17.2395C3.16263 17.1652 2.98125 16.7637 3.16263 16.4069C3.30105 16.1343 3.45379 15.8716 3.60175 15.6039C3.54925 15.5593 3.51583 15.5296 3.47765 15.4949C2.77124 14.8803 2.3178 14.1022 2.12687 13.1605C1.97414 12.4022 1.81662 11.6488 1.66389 10.8905C1.64479 10.7865 1.61138 10.7369 1.5016 10.7468C1.18181 10.7865 0.96702 10.6279 0.833374 10.3404C0.838147 10.2413 0.838147 10.1421 0.838147 10.043ZM17.2718 10.7617C12.4128 10.7617 7.58248 10.7617 2.73305 10.7617C2.89056 11.52 3.03376 12.2634 3.19604 13.0069C3.47765 14.3203 4.585 15.2719 5.88327 15.2768C8.62778 15.2917 11.3723 15.2917 14.1168 15.2768C15.3769 15.2719 16.4652 14.3797 16.7754 13.1159C16.9711 12.3427 17.1095 11.5547 17.2718 10.7617ZM7.29133 4.99755C8.14093 4.99755 8.97622 4.99755 9.8115 4.99755C9.8115 4.50688 9.46784 4.05586 9.00963 3.98647C8.70893 3.94186 8.38913 3.94186 8.08843 3.98647C7.62544 4.05586 7.27701 4.53166 7.29133 4.99755Z" fill="#183891"/>
<path d="M8.03592 7.91678C8.03592 8.07043 8.0407 8.22407 8.03592 8.38267C8.02638 8.69491 7.80682 8.92786 7.52043 8.93282C7.22928 8.94273 6.98108 8.72465 6.97153 8.41736C6.95721 8.09025 6.95721 7.76314 6.97153 7.43603C6.98585 7.11882 7.23405 6.90075 7.53475 6.91066C7.82114 6.92057 8.03592 7.15847 8.0407 7.47072C8.0407 7.61941 8.0407 7.76809 8.03592 7.91678Z" fill="#183891"/>
<path d="M10.1361 7.92174C10.1361 8.07043 10.1408 8.21911 10.1361 8.3678C10.1218 8.69987 9.89742 8.93777 9.59194 8.93281C9.29124 8.93281 9.07168 8.69491 9.06213 8.35789C9.05736 8.06547 9.05736 7.77801 9.06213 7.48559C9.06691 7.15847 9.28169 6.92057 9.57285 6.91066C9.87833 6.90075 10.1122 7.12378 10.1313 7.46081C10.1408 7.61445 10.1313 7.7681 10.1361 7.92174Z" fill="#183891"/>
</svg>
