<svg width="16" height="20" viewBox="0 0 16 20" fill="none" xmlns="http://www.w3.org/2000/svg">
<path d="M13.2067 17.7403C13.1127 17.7403 13.0343 17.7403 12.9559 17.7403C9.86791 17.7403 6.77991 17.7403 3.68669 17.7403C2.93429 17.7403 2.35954 17.3039 2.18711 16.5892C2.14531 16.4146 2.12964 16.2237 2.12964 16.0437C2.12441 12.4048 2.12964 8.7605 2.12964 5.12164C2.12964 5.03435 2.12964 4.94707 2.12964 4.83795C1.97288 4.88705 1.83703 4.91979 1.71163 4.96889C1.44516 5.07254 1.30931 5.27985 1.29885 5.57445C1.29363 5.63992 1.29885 5.71084 1.29885 5.77631C1.29885 8.32405 1.29885 10.8773 1.29885 13.425C1.29885 13.4905 1.30408 13.5614 1.29363 13.6269C1.27273 13.8069 1.13688 13.9269 0.974903 13.9214C0.812927 13.916 0.687526 13.7905 0.671851 13.605C0.666626 13.5505 0.671851 13.4959 0.671851 13.4414C0.666626 10.8718 0.666626 8.28586 0.666626 5.70539C0.666626 4.94707 0.995803 4.49971 1.69596 4.2924C1.72208 4.28694 1.74821 4.27603 1.77433 4.27058C2.00946 4.23239 2.13486 4.12873 2.18711 3.84504C2.27071 3.35404 2.59989 3.03762 3.05969 2.89578C3.47769 2.76484 3.90092 2.64482 4.32415 2.53026C4.44955 2.49752 4.51225 2.45388 4.53315 2.29567C4.6272 1.56462 5.1079 0.991789 5.72446 0.866311C5.83941 0.844489 5.95958 0.844489 6.07453 0.844489C7.80925 0.844489 9.54918 0.860856 11.2839 0.833578C12.1878 0.817211 12.7312 1.60827 12.7783 2.2793C12.7887 2.41023 12.8305 2.46479 12.9507 2.49752C13.4262 2.63391 13.9069 2.78121 14.3823 2.92305C14.9989 3.10854 15.3333 3.57772 15.3333 4.24875C15.3333 4.85978 15.3333 5.47625 15.3333 6.08728C15.3333 6.34914 15.2183 6.49099 15.025 6.49099C14.8265 6.49099 14.7115 6.34369 14.7115 6.08728C14.7115 5.48171 14.7115 4.87614 14.7115 4.26512C14.7115 3.86141 14.5548 3.64864 14.1838 3.53408C13.6874 3.38678 13.191 3.23948 12.679 3.08672C12.632 3.17401 12.5797 3.26675 12.5274 3.3595C12.1356 4.06872 11.7332 4.76703 11.3623 5.48716C11.0801 6.03272 10.6987 6.3546 10.056 6.24003C10.056 6.32732 10.056 6.4037 10.056 6.47462C10.056 7.36933 10.0508 8.25859 10.056 9.1533C10.0612 9.6934 9.88881 10.1353 9.42378 10.4081C8.92218 10.6972 8.41012 10.6972 7.90852 10.4026C7.51664 10.168 7.30764 9.79705 7.29719 9.32787C7.28152 8.59137 7.29197 7.85487 7.29197 7.11837C7.29197 6.90561 7.42259 6.76922 7.59502 6.76922C7.77267 6.76376 7.91375 6.91106 7.91375 7.13474C7.91897 7.81123 7.91897 8.48772 7.91375 9.15875C7.90852 9.46972 7.99212 9.73159 8.27427 9.86797C8.5721 10.0153 8.86993 10.0044 9.15208 9.81342C9.36631 9.67157 9.42378 9.4479 9.42378 9.19149C9.41856 8.24222 9.40288 7.29295 9.42901 6.34914C9.43946 5.93998 9.36631 5.60719 9.05803 5.33986C8.94308 5.24166 8.85948 5.11073 8.7393 4.97434C8.45192 5.29622 8.175 5.61264 7.89807 5.92361C7.56889 6.29459 7.07774 6.40915 6.66496 6.18002C6.48731 6.08182 6.32011 5.92361 6.21039 5.74903C5.69311 4.91979 5.19673 4.07963 4.70035 3.23948C4.63765 3.13037 4.58018 3.10854 4.46522 3.14673C4.0838 3.26675 3.69714 3.37041 3.31572 3.47952C2.90294 3.61591 2.75664 3.81777 2.75664 4.27603C2.75664 7.12383 2.75664 9.97709 2.75664 12.8249C2.75664 13.9105 2.75664 14.9907 2.75664 16.0764C2.75664 16.7365 3.09104 17.0857 3.72327 17.0857C7.06729 17.0857 10.4113 17.0857 13.7553 17.0857C14.3667 17.0857 14.7011 16.7365 14.7011 16.0982C14.7011 13.2886 14.7011 10.479 14.7011 7.66939C14.7011 7.58755 14.6958 7.50026 14.7115 7.42389C14.7533 7.24931 14.863 7.15656 15.0407 7.17293C15.2079 7.18384 15.3019 7.29295 15.3228 7.46208C15.3333 7.52754 15.3281 7.59846 15.3281 7.66393C15.3281 10.4572 15.3281 13.2559 15.3281 16.0491C15.3281 17.042 14.8265 17.6312 13.8755 17.7458C13.8651 17.784 13.8494 17.8276 13.8442 17.8713C13.7135 18.6296 13.1127 19.1588 12.3707 19.1642C11.0801 19.1697 9.78431 19.1642 8.49372 19.1642C6.41939 19.1642 4.33982 19.1642 2.26549 19.1642C1.27795 19.1697 0.666626 18.5368 0.666626 17.5167C0.666626 16.6874 0.666626 15.8527 0.666626 15.0235C0.666626 14.7616 0.776352 14.6088 0.969678 14.6034C1.16823 14.5979 1.29363 14.7562 1.29363 15.0235C1.29363 15.8691 1.29363 16.7147 1.29363 17.5603C1.29363 18.155 1.63848 18.5205 2.20801 18.5205C5.58338 18.5205 8.95875 18.5205 12.3393 18.5205C12.8148 18.515 13.1754 18.1986 13.2067 17.7403ZM8.32652 4.4888C7.50619 3.51771 6.70154 2.56844 5.90211 1.61918C5.82373 1.52643 5.76103 1.53189 5.66698 1.58099C5.1915 1.8374 4.9825 2.4757 5.26465 2.9667C5.74536 3.80685 6.25741 4.63064 6.76424 5.45443C6.91576 5.69448 7.21882 5.72175 7.41214 5.5199C7.72042 5.18711 8.01825 4.84341 8.32652 4.4888ZM8.75498 4.00325C9.49171 3.16855 10.218 2.35022 10.9599 1.51007C9.50738 1.51007 8.0914 1.51007 6.64406 1.51007C7.35989 2.35022 8.0496 3.1631 8.75498 4.00325ZM9.17298 4.49971C9.45513 4.8325 9.72161 5.15983 9.99853 5.47625C10.2023 5.70539 10.5263 5.67265 10.6778 5.39988C11.148 4.54881 11.6131 3.7032 12.0676 2.84122C12.2871 2.4266 12.1251 1.88104 11.7228 1.61918C10.8763 2.5739 10.0299 3.53408 9.17298 4.49971Z" fill="#183891"/>
<path d="M5.0034 7.80578C4.63243 7.80578 4.26145 7.80578 3.89047 7.80578C3.65534 7.80578 3.51427 7.68575 3.50904 7.48935C3.50382 7.2875 3.65012 7.15111 3.89047 7.15111C4.63243 7.15111 5.37438 7.15111 6.11633 7.15111C6.34624 7.15111 6.48209 7.27659 6.48209 7.47844C6.48209 7.6803 6.34624 7.80032 6.11633 7.80032C5.74536 7.80577 5.37438 7.80578 5.0034 7.80578Z" fill="#183891"/>
<path d="M8.66093 7.47844C8.80723 7.47299 8.93785 7.60392 8.93785 7.76213C8.94308 7.9258 8.8229 8.05127 8.67138 8.05673C8.51985 8.06219 8.39445 7.93125 8.38922 7.7785C8.38922 7.62574 8.51463 7.4839 8.66093 7.47844Z" fill="#183891"/>
<path d="M8.66093 6.73649C8.51463 6.73103 8.38922 6.6001 8.38922 6.44189C8.39445 6.28368 8.51985 6.1582 8.66615 6.1582C8.81768 6.16365 8.93785 6.28913 8.93263 6.4528C8.93785 6.61101 8.81245 6.73649 8.66093 6.73649Z" fill="#183891"/>
<path d="M8.6766 8.81505C8.82813 8.82051 8.94308 8.94599 8.94308 9.1042C8.93785 9.26241 8.81245 9.39334 8.66615 9.38789C8.51985 9.38243 8.39445 9.24604 8.39967 9.09329C8.39445 8.93507 8.51985 8.8096 8.6766 8.81505Z" fill="#183891"/>
</svg>
