<svg width="20" height="20" viewBox="0 0 20 20" fill="none" xmlns="http://www.w3.org/2000/svg">
<g clip-path="url(#clip0_172_750)">
<path d="M20 10.2262C20.0122 9.53857 19.9398 8.85196 19.7845 8.18124H10.2041V11.8925H15.8278C15.7219 12.5442 15.4824 13.1682 15.1238 13.7267C14.7651 14.2853 14.2948 14.7669 13.7411 15.1425L13.722 15.2675L16.7513 17.5675L16.9618 17.5875C17.9646 16.6377 18.7531 15.4925 19.2764 14.2256C19.7998 12.9588 20.0462 11.5985 20 10.2325" fill="#4285F4"/>
<path d="M10.2041 20C12.6907 20.0695 15.11 19.2025 16.9643 17.5775L13.7449 15.1325C12.7008 15.8184 11.4644 16.168 10.2079 16.1325C8.91768 16.1251 7.66255 15.7198 6.6206 14.974C5.57866 14.2282 4.8028 13.1798 4.40309 11.9775L4.28319 11.9875L1.13396 14.3763L1.09314 14.4887C1.94145 16.1457 3.24335 17.5386 4.85326 18.5119C6.46317 19.4852 8.31761 20.0004 10.2092 20" fill="#34A853"/>
<path d="M4.39919 11.9775C4.17614 11.341 4.06109 10.673 4.05863 10C4.06285 9.32808 4.17388 8.66092 4.38771 8.0225V7.89L1.19893 5.46249L1.09434 5.51125C0.37873 6.90363 0.00598145 8.44097 0.00598145 10C0.00598145 11.559 0.37873 13.0964 1.09434 14.4887L4.41067 11.9775" fill="#FBBC05"/>
<path d="M10.2041 3.86626C11.6661 3.84407 13.08 4.37764 14.1492 5.35501L17.0293 2.60501C15.1831 0.905102 12.7372 -0.0284577 10.2041 6.6763e-06C8.31248 -0.000444332 6.45804 0.514784 4.84813 1.48808C3.23823 2.46137 1.93632 3.85435 1.08801 5.51126L4.38776 8.02251C4.79146 6.82046 5.56992 5.77288 6.61342 5.02745C7.65691 4.28201 8.91281 3.8763 10.2041 3.86751" fill="#EB4335"/>
</g>
<defs>
<clipPath id="clip0_172_750">
<rect width="20" height="20" fill="white"/>
</clipPath>
</defs>
</svg>
