<svg width="60" height="60" viewBox="0 0 60 60" fill="none" xmlns="http://www.w3.org/2000/svg">
<path d="M3 22.3482C3 21.5637 3 20.7999 3 20.0154C3.14451 19.1277 3.20644 18.2194 3.43353 17.3523C5.16763 10.7875 9.37903 6.72062 16.0264 5.33747C19.8456 4.53235 23.5202 5.19296 26.9678 7.05093C28.1032 7.64961 29.1561 8.41344 30.1883 9.07405C31.365 8.35151 32.5004 7.5051 33.7597 6.88577C38.3014 4.63557 42.9876 4.3672 47.6738 6.32838C55.1676 9.44564 58.7391 17.373 56.8811 25.1971C56.0553 28.6653 54.3625 31.7 52.2362 34.5282C49.7795 37.8106 46.9306 40.7627 43.9166 43.5084C40.0562 47.0385 36.1338 50.5067 32.2114 53.9956C31.7366 54.4085 31.1379 54.7594 30.5392 54.9246C29.6928 55.1517 28.9703 54.7388 28.3303 54.1814C24.8415 51.1261 21.332 48.0914 17.8844 44.9948C14.5813 42.0427 11.3196 39.0493 8.55326 35.5811C6.1379 32.567 4.25929 29.3053 3.47481 25.4861C3.26837 24.4539 3.16515 23.4011 3 22.3482ZM33.4707 25.0526C33.4707 22.823 33.4707 20.6554 33.4707 18.4878C31.2618 18.4878 29.0941 18.4878 26.8852 18.4878C26.8852 20.676 26.8852 22.8437 26.8852 25.0732C24.6557 25.0732 22.488 25.0732 20.341 25.0732C20.341 27.2821 20.341 29.4498 20.341 31.6587C22.5293 31.6587 24.6969 31.6587 26.9059 31.6587C26.9059 33.8883 26.9059 36.0352 26.9059 38.2029C29.1148 38.2029 31.2824 38.2029 33.4913 38.2029C33.4913 36.0146 33.4913 33.8676 33.4913 31.638C35.7002 31.638 37.8679 31.638 40.0562 31.638C40.0562 29.4085 40.0562 27.2615 40.0562 25.0526C37.8679 25.0526 35.7003 25.0526 33.4707 25.0526Z" fill="#183891"/>
</svg>
