<svg width="24" height="24" viewBox="0 0 24 24" fill="none" xmlns="http://www.w3.org/2000/svg">
<path d="M20.9652 19.1667L19.5381 7.75L19.4541 7H16.1801V6.16667C16.1801 5.08333 15.7603 4 14.9209 3.25C14.1653 2.41667 13.074 2 11.9826 2C10.8913 2 9.79992 2.41667 9.04438 3.25C8.20488 4 7.78513 5.08333 7.78513 6.16667V7H4.51109L4.42714 7.75L3 19.1667C3 19.5 3 19.8333 3.08395 20.25C3.1679 20.5833 3.3358 20.9167 3.58765 21.1667C3.8395 21.4167 4.09135 21.6667 4.42714 21.75C4.76294 21.9167 5.09874 22 5.51849 22H18.5307C18.8665 22 19.2862 21.9167 19.5381 21.75C19.8739 21.5833 20.1257 21.4167 20.3776 21.1667C20.6294 20.9167 20.7973 20.5833 20.8813 20.25C20.9652 19.9167 21.0492 19.5 20.9652 19.1667ZM9.46412 6.16667C9.46412 5.5 9.71597 4.91667 10.2197 4.41667C10.6394 3.91667 11.311 3.66667 11.9826 3.66667C12.6542 3.66667 13.3258 3.91667 13.7456 4.41667C14.2493 4.91667 14.5011 5.5 14.5011 6.16667V7H9.46412V6.16667ZM19.2862 19.75C19.2862 19.8333 19.2023 20 19.1183 20.0833C19.0344 20.1667 18.9504 20.25 18.8665 20.25C18.6986 20.3333 18.6146 20.3333 18.4467 20.3333H5.51849C5.35059 20.3333 5.26664 20.3333 5.18269 20.25C5.09874 20.1667 5.01479 20.1667 4.93084 20.0833C4.84689 20 4.76294 19.9167 4.76294 19.75C4.76294 19.6667 4.76294 19.5 4.76294 19.4167L6.02219 8.66667H7.78513V11.1667H9.46412V8.66667H14.5011V11.1667H16.1801V8.66667H17.943L19.2862 19.4167C19.2862 19.5 19.2862 19.6667 19.2862 19.75Z" fill="black"/>
</svg>
