<svg width="24" height="24" viewBox="0 0 24 24" fill="none" xmlns="http://www.w3.org/2000/svg">
<path d="M18.6213 2.55025L21.4497 5.37868L20.0355 6.79289L17.2071 3.96447L18.6213 2.55025Z" fill="black"/>
<path d="M12.8224 8.60051H10.8224V12.6005H12.8224V8.60051Z" fill="black"/>
<path fill-rule="evenodd" clip-rule="evenodd" d="M5.18629 18.8137C8.70101 22.3284 14.3995 22.3284 17.9142 18.8137C21.4289 15.299 21.4289 9.60051 17.9142 6.08579C14.3995 2.57107 8.70101 2.57107 5.18629 6.08579C1.67157 9.6005 1.67157 15.299 5.18629 18.8137ZM6.6005 17.3995C9.33417 20.1332 13.7663 20.1332 16.5 17.3995C19.2337 14.6658 19.2337 10.2337 16.5 7.5C13.7663 4.76633 9.33417 4.76633 6.6005 7.5C3.86683 10.2337 3.86683 14.6658 6.6005 17.3995Z" fill="black"/>
</svg>
