<svg width="24" height="24" viewBox="0 0 24 24" fill="none" xmlns="http://www.w3.org/2000/svg">
<path d="M8.2898 20C15.8373 20 19.9648 13.845 19.9648 8.50752C19.9648 8.33272 19.9612 8.15872 19.9532 7.98544C20.7563 7.41341 21.4494 6.70514 22 5.89384C21.2648 6.2156 20.4736 6.43216 19.6436 6.5298C20.4908 6.02976 21.1411 5.23868 21.448 4.29572C20.6425 4.76608 19.7613 5.09766 18.8424 5.27616C18.0936 4.49104 17.0276 4 15.8472 4C13.5812 4 11.7436 5.80888 11.7436 8.0386C11.7436 8.3556 11.7797 8.66384 11.8501 8.9596C8.43972 8.79068 5.41565 7.1834 3.39179 4.73944C3.02727 5.35586 2.83554 6.05642 2.83618 6.7696C2.83618 8.17096 3.56057 9.40804 4.66219 10.1318C4.01057 10.1122 3.37325 9.93895 2.80382 9.6266C2.80321 9.64356 2.80321 9.66008 2.80321 9.6782C2.80321 11.6343 4.2176 13.2676 6.09516 13.6376C5.74253 13.7322 5.37865 13.78 5.01317 13.7798C4.74923 13.7798 4.49199 13.7542 4.24199 13.707C4.76439 15.3118 6.27919 16.4797 8.07516 16.5124C6.67073 17.5959 4.90159 18.2413 2.97878 18.2413C2.65169 18.2416 2.32486 18.2229 2 18.1854C3.81602 19.3312 5.97236 19.9997 8.29 19.9997" fill="#1DA1F2"/>
</svg>
