<svg width="12" height="16" viewBox="0 0 12 16" fill="none" xmlns="http://www.w3.org/2000/svg">
<path d="M5.6 0C2.504 0 0 2.504 0 5.6C0 6.992 0.4 8.296 1.128 9.472C1.888 10.704 2.888 11.76 3.656 12.992C4.032 13.592 4.304 14.152 4.592 14.8C4.8 15.24 4.968 16 5.6 16C6.232 16 6.4 15.24 6.6 14.8C6.896 14.152 7.16 13.592 7.536 12.992C8.304 11.768 9.304 10.712 10.064 9.472C10.8 8.296 11.2 6.992 11.2 5.6C11.2 2.504 8.696 0 5.6 0ZM5.6 7.8C5.06957 7.8 4.56086 7.58929 4.18579 7.21421C3.81071 6.83914 3.6 6.33043 3.6 5.8C3.6 5.26957 3.81071 4.76086 4.18579 4.38579C4.56086 4.01071 5.06957 3.8 5.6 3.8C6.13043 3.8 6.63914 4.01071 7.01421 4.38579C7.38929 4.76086 7.6 5.26957 7.6 5.8C7.6 6.33043 7.38929 6.83914 7.01421 7.21421C6.63914 7.58929 6.13043 7.8 5.6 7.8Z" fill="white"/>
</svg>
