<svg width="18" height="20" viewBox="0 0 18 20" fill="none" xmlns="http://www.w3.org/2000/svg">
<path d="M17.9652 17.1667L16.5381 5.75L16.4541 5H13.1801V4.16667C13.1801 3.08333 12.7603 2 11.9209 1.25C11.1653 0.416667 10.074 0 8.98261 0C7.89127 0 6.79992 0.416667 6.04437 1.25C5.20488 2 4.78513 3.08333 4.78513 4.16667V5H1.51109L1.42714 5.75L0 17.1667C0 17.5 1.87642e-08 17.8333 0.0839497 18.25C0.167899 18.5833 0.335799 18.9167 0.587648 19.1667C0.839497 19.4167 1.09135 19.6667 1.42714 19.75C1.76294 19.9167 2.09874 20 2.51849 20H15.5307C15.8665 20 16.2862 19.9167 16.5381 19.75C16.8739 19.5833 17.1257 19.4167 17.3776 19.1667C17.6294 18.9167 17.7973 18.5833 17.8813 18.25C17.9652 17.9167 18.0492 17.5 17.9652 17.1667ZM6.46412 4.16667C6.46412 3.5 6.71597 2.91667 7.21967 2.41667C7.63942 1.91667 8.31102 1.66667 8.98261 1.66667C9.65421 1.66667 10.3258 1.91667 10.7456 2.41667C11.2493 2.91667 11.5011 3.5 11.5011 4.16667V5H6.46412V4.16667ZM16.2862 17.75C16.2862 17.8333 16.2023 18 16.1183 18.0833C16.0344 18.1667 15.9504 18.25 15.8665 18.25C15.6986 18.3333 15.6146 18.3333 15.4467 18.3333H2.51849C2.35059 18.3333 2.26664 18.3333 2.18269 18.25C2.09874 18.1667 2.01479 18.1667 1.93084 18.0833C1.84689 18 1.76294 17.9167 1.76294 17.75C1.76294 17.6667 1.76294 17.5 1.76294 17.4167L3.02219 6.66667H4.78513V9.16667H6.46412V6.66667H11.5011V9.16667H13.1801V6.66667H14.943L16.2862 17.4167C16.2862 17.5 16.2862 17.6667 16.2862 17.75Z" fill="black"/>
</svg>
