<svg width="24" height="24" viewBox="0 0 24 24" fill="none" xmlns="http://www.w3.org/2000/svg">
<path d="M11.6 4C8.504 4 6 6.504 6 9.6C6 10.992 6.4 12.296 7.128 13.472C7.888 14.704 8.888 15.76 9.656 16.992C10.032 17.592 10.304 18.152 10.592 18.8C10.8 19.24 10.968 20 11.6 20C12.232 20 12.4 19.24 12.6 18.8C12.896 18.152 13.16 17.592 13.536 16.992C14.304 15.768 15.304 14.712 16.064 13.472C16.8 12.296 17.2 10.992 17.2 9.6C17.2 6.504 14.696 4 11.6 4ZM11.6 11.8C11.0696 11.8 10.5609 11.5893 10.1858 11.2142C9.81071 10.8391 9.6 10.3304 9.6 9.8C9.6 9.26957 9.81071 8.76086 10.1858 8.38579C10.5609 8.01071 11.0696 7.8 11.6 7.8C12.1304 7.8 12.6391 8.01071 13.0142 8.38579C13.3893 8.76086 13.6 9.26957 13.6 9.8C13.6 10.3304 13.3893 10.8391 13.0142 11.2142C12.6391 11.5893 12.1304 11.8 11.6 11.8Z" fill="black"/>
</svg>
