<svg width="24" height="24" viewBox="0 0 24 24" fill="none" xmlns="http://www.w3.org/2000/svg">
<path d="M7.07148 21.9293C5.88207 21.8752 5.23595 21.6772 4.80619 21.5096C4.23675 21.2879 3.83077 21.024 3.40339 20.5972C2.97602 20.1704 2.7115 19.7644 2.49098 19.195C2.32336 18.7652 2.12542 18.1191 2.07133 16.9297C2.01189 15.644 2 15.2582 2 12.0009C2 8.74354 2.01308 8.35837 2.07073 7.07148C2.12483 5.88207 2.32395 5.23714 2.49039 4.80619C2.7121 4.23675 2.97661 3.83077 3.4028 3.4028C3.82958 2.97602 4.23556 2.71091 4.8056 2.49039C5.23536 2.32276 5.88148 2.12483 7.07088 2.07073C8.35718 2.01189 8.74354 2 11.9997 2C15.2571 2 15.6422 2.01308 16.9291 2.07073C18.1185 2.12483 18.7635 2.32395 19.1944 2.49039C19.7638 2.71091 20.1698 2.97602 20.5972 3.4028C21.0246 3.82958 21.2879 4.23616 21.5096 4.8056C21.6772 5.23536 21.8752 5.88148 21.9293 7.07088C21.9881 8.35777 22 8.74295 22 12.0003C22 15.2565 21.9881 15.6428 21.9293 16.9297C21.8752 18.1191 21.6761 18.7652 21.5096 19.195C21.2879 19.7644 21.024 20.1704 20.5972 20.5972C20.1704 21.024 19.7638 21.2879 19.1944 21.5096C18.7646 21.6772 18.1185 21.8752 16.9291 21.9293C15.6434 21.9881 15.2571 22 11.9997 22C8.74354 22 8.35718 21.9887 7.07148 21.9293Z" fill="url(#paint0_radial_14_194)"/>
<path d="M7.07148 21.9293C5.88207 21.8752 5.23595 21.6772 4.80619 21.5096C4.23675 21.2879 3.83077 21.024 3.40339 20.5972C2.97602 20.1704 2.7115 19.7644 2.49098 19.195C2.32336 18.7652 2.12542 18.1191 2.07133 16.9297C2.01189 15.644 2 15.2582 2 12.0009C2 8.74354 2.01308 8.35837 2.07073 7.07148C2.12483 5.88207 2.32395 5.23714 2.49039 4.80619C2.7121 4.23675 2.97661 3.83077 3.4028 3.4028C3.82958 2.97602 4.23556 2.71091 4.8056 2.49039C5.23536 2.32276 5.88148 2.12483 7.07088 2.07073C8.35718 2.01189 8.74354 2 11.9997 2C15.2571 2 15.6422 2.01308 16.9291 2.07073C18.1185 2.12483 18.7635 2.32395 19.1944 2.49039C19.7638 2.71091 20.1698 2.97602 20.5972 3.4028C21.0246 3.82958 21.2879 4.23616 21.5096 4.8056C21.6772 5.23536 21.8752 5.88148 21.9293 7.07088C21.9881 8.35777 22 8.74295 22 12.0003C22 15.2565 21.9881 15.6428 21.9293 16.9297C21.8752 18.1191 21.6761 18.7652 21.5096 19.195C21.2879 19.7644 21.024 20.1704 20.5972 20.5972C20.1704 21.024 19.7638 21.2879 19.1944 21.5096C18.7646 21.6772 18.1185 21.8752 16.9291 21.9293C15.6434 21.9881 15.2571 22 11.9997 22C8.74354 22 8.35718 21.9887 7.07148 21.9293Z" fill="url(#paint1_radial_14_194)"/>
<path d="M9.54451 12.0426C9.54451 10.6748 10.653 9.56573 12.0208 9.56573C13.3886 9.56573 14.4977 10.6748 14.4977 12.0426C14.4977 13.4104 13.3886 14.5195 12.0208 14.5195C10.653 14.5195 9.54451 13.4104 9.54451 12.0426ZM8.20555 12.0426C8.20555 14.1498 9.91363 15.8579 12.0208 15.8579C14.128 15.8579 15.8361 14.1498 15.8361 12.0426C15.8361 9.93545 14.128 8.22736 12.0208 8.22736C9.91363 8.22736 8.20561 9.93533 8.20561 12.0426M15.0956 8.07608C15.0955 8.25243 15.1477 8.42483 15.2456 8.5715C15.3435 8.71816 15.4827 8.8325 15.6456 8.90004C15.8085 8.96759 15.9878 8.98532 16.1608 8.95099C16.3337 8.91665 16.4926 8.8318 16.6174 8.70716C16.7421 8.58251 16.8271 8.42368 16.8616 8.25074C16.896 8.07779 16.8785 7.89851 16.811 7.73557C16.7436 7.57262 16.6294 7.43332 16.4828 7.33529C16.3362 7.23726 16.1639 7.1849 15.9875 7.18483H15.9872C15.7508 7.18494 15.5241 7.27886 15.3569 7.44597C15.1898 7.61308 15.0958 7.83971 15.0956 8.07608ZM9.01905 18.0906C8.29465 18.0576 7.90091 17.9369 7.63925 17.835C7.29236 17.6999 7.04485 17.5391 6.78462 17.2792C6.52439 17.0193 6.3633 16.7721 6.22885 16.4252C6.12685 16.1636 6.00618 15.7698 5.97325 15.0454C5.93723 14.2622 5.93004 14.0269 5.93004 12.0427C5.93004 10.0585 5.93783 9.82394 5.97325 9.04009C6.00624 8.31569 6.1278 7.92261 6.22885 7.6603C6.3639 7.3134 6.52474 7.06589 6.78462 6.80566C7.04449 6.54543 7.29176 6.38434 7.63925 6.24989C7.90079 6.14789 8.29465 6.02722 9.01905 5.99429C9.80224 5.95827 10.0375 5.95108 12.0208 5.95108C14.0041 5.95108 14.2396 5.95875 15.0234 5.99441C15.7479 6.0274 16.1409 6.14896 16.4032 6.25001C16.7501 6.38446 16.9977 6.5459 17.2579 6.80578C17.5181 7.06565 17.6786 7.31352 17.8137 7.66042C17.9157 7.92195 18.0363 8.31581 18.0692 9.04021C18.1053 9.82406 18.1125 10.0587 18.1125 12.0429C18.1125 14.027 18.1053 14.2617 18.0692 15.0455C18.0363 15.7699 17.915 16.1636 17.8137 16.4253C17.6786 16.7722 17.5178 17.0197 17.2579 17.2793C16.998 17.539 16.7501 17.7001 16.4032 17.8351C16.1417 17.9371 15.7479 18.0578 15.0234 18.0907C14.2403 18.1267 14.005 18.1339 12.0208 18.1339C10.0366 18.1339 9.802 18.1267 9.01905 18.0907M8.95753 4.65753C8.16655 4.69355 7.62606 4.81897 7.15404 5.00265C6.6655 5.19232 6.25137 5.44679 5.83785 5.85966C5.42432 6.27254 5.17051 6.68672 4.98083 7.17586C4.79716 7.64817 4.67174 8.18837 4.63572 8.97934C4.5991 9.77157 4.59072 10.0248 4.59072 12.0426C4.59072 14.0604 4.5991 14.3137 4.63572 15.1059C4.67174 15.8969 4.79716 16.4371 4.98083 16.9094C5.17051 17.3979 5.42438 17.8129 5.83785 18.2256C6.25132 18.6383 6.6649 18.8924 7.15404 19.0826C7.62695 19.2663 8.16655 19.3917 8.95753 19.4277C9.75017 19.4637 10.003 19.4727 12.0208 19.4727C14.0386 19.4727 14.2919 19.4643 15.0841 19.4277C15.8751 19.3917 16.4153 19.2663 16.8876 19.0826C17.3761 18.8924 17.7902 18.6385 18.2038 18.2256C18.6173 17.8127 18.8706 17.3979 19.0608 16.9094C19.2444 16.4371 19.3705 15.8969 19.4059 15.1059C19.4419 14.3131 19.4503 14.0604 19.4503 12.0426C19.4503 10.0248 19.4419 9.77157 19.4059 8.97934C19.3699 8.18831 19.2444 7.64787 19.0608 7.17586C18.8706 6.68731 18.6166 6.27319 18.2038 5.85966C17.7909 5.44613 17.3761 5.19232 16.8882 5.00265C16.4153 4.81897 15.8751 4.69296 15.0847 4.65753C14.2923 4.62133 14.0392 4.61254 12.0217 4.61254C10.0042 4.61254 9.75047 4.62092 8.95783 4.65753" fill="white"/>
<defs>
<radialGradient id="paint0_radial_14_194" cx="0" cy="0" r="1" gradientUnits="userSpaceOnUse" gradientTransform="translate(3.29438 21.5619) scale(25.3926)">
<stop offset="0.09" stop-color="#FA8F21"/>
<stop offset="0.78" stop-color="#D82D7E"/>
</radialGradient>
<radialGradient id="paint1_radial_14_194" cx="0" cy="0" r="1" gradientUnits="userSpaceOnUse" gradientTransform="translate(15.8533 20.9197) scale(22.3457)">
<stop offset="0.64" stop-color="#8C3AAA" stop-opacity="0"/>
<stop offset="1" stop-color="#8C3AAA"/>
</radialGradient>
</defs>
</svg>
