<svg width="60" height="60" viewBox="0 0 60 60" fill="none" xmlns="http://www.w3.org/2000/svg">
<path d="M31.2546 3C31.4774 3.07426 31.7108 3.15914 31.9336 3.2334C35.3603 4.24126 37.8216 7.73163 37.5564 11.2114C37.2593 15.1155 34.4904 18.1497 30.7666 18.6589C30.7348 18.6589 30.7029 18.6802 30.512 18.7332C30.9576 18.8181 31.2652 18.8817 31.5729 18.9348C36.1666 19.7092 39.8904 23.4648 40.5694 28.0373C40.6861 28.8012 40.7391 29.5756 40.7497 30.3501C40.7709 32.8008 40.7603 35.2409 40.7603 37.734C33.3658 37.734 25.9925 37.734 18.598 37.734C18.5874 37.6597 18.5662 37.5749 18.5662 37.49C18.5662 34.8271 18.5238 32.1749 18.5874 29.512C18.7041 24.1226 22.8204 19.5713 28.1462 18.8605C28.3053 18.8393 28.475 18.8075 28.6342 18.7332C26.6609 18.3937 25.0059 17.5238 23.6904 16.0279C19.8393 11.6994 21.9611 4.67623 27.5521 3.19096C27.7324 3.13792 27.9128 3.06365 28.0931 3C29.1434 3 30.2043 3 31.2546 3Z" fill="#183891"/>
<path d="M7.76621 57C8.05265 55.398 8.23301 53.8916 8.61493 52.4381C8.95442 51.1544 8.78468 50.2314 7.66012 49.3615C6.37642 48.3642 5.27308 47.1336 4 45.9242C5.0609 45.765 6.01572 45.6271 6.98114 45.4892C8.11631 45.3301 9.24086 45.1603 10.376 45.0118C10.6943 44.9694 10.8534 44.8314 11.002 44.545C11.9037 42.7308 12.8267 40.9379 13.7815 39.0389C13.8876 39.2299 13.9725 39.3678 14.0468 39.5057C14.8955 41.1819 15.7548 42.8582 16.5929 44.545C16.7308 44.8314 16.9006 44.9587 17.2189 45.0012C18.598 45.1815 19.9666 45.4892 21.3458 45.5528C22.4597 45.5953 23.5737 45.3407 24.6982 45.224C24.7301 45.224 24.7619 45.2134 24.8043 45.2027C25.4303 45.0967 26.1835 45.1709 26.6291 44.842C27.0853 44.5026 27.2444 43.7705 27.5308 43.1976C28.2204 41.8291 28.91 40.4711 29.642 39.0283C29.7587 39.2405 29.833 39.389 29.9179 39.5375C30.756 41.2031 31.6047 42.8582 32.4322 44.5344C32.5807 44.8314 32.7611 44.98 33.1006 45.0224C34.4585 45.2028 35.8165 45.4998 37.1745 45.5635C38.2672 45.6059 39.3705 45.3725 40.4739 45.2452C41.0361 45.1815 41.5984 45.1073 42.1395 44.98C42.3411 44.9375 42.5745 44.7678 42.6699 44.5874C43.6141 42.7733 44.5265 40.9591 45.4813 39.0601C45.5874 39.2299 45.6723 39.3466 45.736 39.4739C46.5528 41.0864 47.391 42.699 48.176 44.3328C48.4094 44.8314 48.7277 45.0118 49.2475 45.0754C51.0935 45.3088 52.9395 45.5847 54.7855 45.8393C54.9234 45.8605 55.0613 45.8923 55.3371 46.0727C55.1674 46.1682 54.9764 46.2424 54.8491 46.3697C53.4699 47.6747 52.0908 48.9902 50.7116 50.2951C50.4888 50.5073 50.4039 50.6876 50.4676 51.0165C50.8389 52.9686 51.1784 54.9206 51.5391 56.9682C51.3057 56.8727 51.1572 56.809 51.0086 56.7348C49.3112 55.9073 47.6244 55.0904 45.9375 54.2629C45.6405 54.1143 45.4071 54.1143 45.0994 54.2629C43.2747 55.1646 41.4393 56.0558 39.4978 57C39.6251 56.2468 39.7312 55.589 39.8585 54.9312C40.0813 53.6688 40.3147 52.4063 40.5587 51.1438C40.633 50.7619 40.5481 50.4967 40.2511 50.2208C39.3493 49.4039 38.49 48.5552 37.5988 47.7065C36.6334 48.6295 35.6998 49.4994 34.7768 50.4012C34.6601 50.5179 34.5965 50.7725 34.6177 50.9422C34.9572 52.9155 35.3179 54.8888 35.6892 56.9682C35.4558 56.8621 35.2861 56.7984 35.1269 56.7242C33.4507 55.9073 31.7745 55.101 30.0982 54.2735C29.78 54.1143 29.5253 54.125 29.2177 54.2735C27.5521 55.101 25.8652 55.9073 24.189 56.7242C24.0299 56.7984 23.8707 56.8727 23.6373 56.9788C23.8495 55.8012 24.0405 54.6978 24.242 53.5945C24.3906 52.7458 24.5391 51.8971 24.7088 51.0483C24.7725 50.7194 24.6982 50.4967 24.4436 50.2633C23.5312 49.4358 22.6507 48.5764 21.7383 47.6959C20.7623 48.6295 19.7969 49.5206 18.8633 50.4436C18.7572 50.5497 18.7466 50.7937 18.7678 50.9635C19.0967 52.8731 19.4361 54.7721 19.7862 56.6817C19.7969 56.7454 19.8075 56.809 19.8287 56.9576C19.6059 56.8621 19.4468 56.7984 19.2982 56.7242C17.6008 55.9073 15.9139 55.0904 14.2271 54.2523C13.9301 54.1037 13.6861 54.1143 13.389 54.2523C11.543 55.1752 9.70766 56.0558 7.76621 57Z" fill="#183891"/>
</svg>
