<svg width="60" height="60" viewBox="0 0 60 60" fill="none" xmlns="http://www.w3.org/2000/svg">
<path d="M31.3035 50.6723C32.6435 51.4772 33.9106 52.2539 35.1923 53.0165C33.663 54.2309 30.7064 54.6404 28.9441 53.8778C29.3664 53.2706 29.7597 52.6634 30.1821 52.0703C30.9394 51.0254 31.1579 49.938 30.4879 48.8084C29.8179 47.6787 28.7402 47.3398 27.4731 47.4104C27.3711 47.4104 27.2546 47.4245 27.1235 47.4386C26.9633 46.6478 26.5992 45.97 25.9292 45.4758C25.2592 44.9815 24.5019 44.7979 23.6717 44.8968C22.6668 42.3691 20.8899 41.663 18.5887 42.9057C18.1663 41.7054 17.3653 40.8864 16.0253 40.6746C14.7291 40.4769 13.6659 40.9146 12.7775 42.002C12.3696 40.9146 12.0055 39.8979 11.5832 38.8953C11.2336 38.0763 11.3356 37.4126 11.8016 36.6359C13.6076 33.614 15.3262 30.5497 17.074 27.4995C17.1614 27.3442 17.2633 27.203 17.3798 27.0194C18.7052 28.3044 20.2345 29.2223 22.0114 29.8436C21.7055 30.6203 21.4288 31.3687 21.1375 32.103C20.6569 33.3598 20.1617 34.6025 19.681 35.8593C19.3461 36.7348 19.6956 37.2149 20.6714 37.229C21.6909 37.2431 22.7105 37.2431 23.73 37.229C25.8127 37.2008 27.3274 36.1134 27.9828 34.193C28.0702 33.9247 28.2013 33.8117 28.5071 33.7976C29.483 33.7411 30.4588 33.6422 31.4492 33.5716C31.6531 33.5575 31.8861 33.5857 32.0609 33.6846C36.9691 36.1134 41.5715 38.9942 45.8972 42.3267C46.5671 42.8492 46.8293 43.4988 46.5963 44.2896C46.3924 44.9956 45.8535 45.4616 45.0961 45.4899C44.6446 45.504 44.1203 45.3628 43.7271 45.1227C41.5278 43.8095 39.3577 42.4538 37.173 41.1123C36.9983 41.0135 36.838 40.9146 36.6196 40.7734C36.3137 41.2394 36.0079 41.6913 35.6729 42.1997C38.4256 43.8942 41.1491 45.5746 43.9018 47.255C43.5523 48.2011 42.0084 48.8507 40.7122 48.4553C40.4064 48.3565 40.1005 48.2153 39.8238 48.0741C37.8867 47.0573 35.9642 46.0406 33.9543 44.9674C33.6775 45.4616 33.4154 45.9276 33.1095 46.4642C35.6292 47.7775 38.1197 49.0625 40.5957 50.3617C39.7073 51.7314 37.4789 52.2539 35.7894 51.336C34.7844 50.7994 33.8378 50.1781 32.8619 49.585C32.6726 49.472 32.4978 49.3591 32.2502 49.2179C31.9152 49.7121 31.6239 50.164 31.3035 50.6723Z" fill="#183891"/>
<path d="M30.0073 7.7158C30.4297 7.23568 30.7064 6.86853 31.0559 6.55786C32.993 4.8492 35.804 4.52442 38.1052 5.73884C40.4064 6.93913 41.6589 9.41034 41.2948 11.9098C41.0326 13.6184 40.3335 15.1153 38.9936 16.2309C36.037 18.7162 33.0367 21.145 30.0364 23.6303C29.9053 23.5456 29.7888 23.475 29.6869 23.3762C26.905 21.1027 24.1232 18.815 21.3414 16.5415C18.9528 14.5787 18.0207 11.4579 19.0548 8.85961C20.6132 4.91981 25.7544 3.71951 28.9732 6.55786C29.3082 6.86853 29.5703 7.22156 30.0073 7.7158Z" fill="#183891"/>
<path d="M34.7116 33.1339C34.9738 33.0633 35.134 33.035 35.3379 32.9785C35.2505 32.4561 35.1777 31.9477 35.0757 31.3546C34.4495 31.4393 33.8523 31.5523 33.2406 31.6088C31.3763 31.7924 29.5121 31.9901 27.6624 32.1454C26.8759 32.216 26.672 32.3431 26.4681 33.1056C26.3807 33.4163 26.3079 33.727 26.1914 34.0094C25.8127 34.8425 25.1573 35.3933 24.2252 35.4921C23.4241 35.5768 22.5939 35.5062 21.7346 35.5062C21.7638 35.3791 21.7783 35.2662 21.822 35.1673C22.39 33.6846 22.9581 32.2019 23.5552 30.7192C23.628 30.5497 23.8028 30.352 23.963 30.3096C26.7885 29.6601 29.614 29.0105 32.4687 28.4174C33.9688 28.1067 35.469 28.2621 36.9546 28.6575C38.9062 29.18 40.8724 29.18 42.8241 28.6857C43.1445 28.601 43.2756 28.6998 43.4212 28.9399C45.3583 32.1313 47.2954 35.3227 49.247 38.5282C48.4314 39.2625 47.6012 40.0109 46.7274 40.8017C43.0571 38.0057 39.0519 35.4215 34.7116 33.1339Z" fill="#183891"/>
<path d="M8.68482 38.627C7.43227 38.0198 6.22342 37.4408 5 36.8336C7.63618 32.2301 10.2432 27.6549 12.894 23.0372C14.132 23.6445 15.3262 24.2234 16.5788 24.8448C13.9426 29.4483 11.321 34.0094 8.68482 38.627Z" fill="#183891"/>
<path d="M43.4649 25.7344C44.7175 25.1272 45.8972 24.5341 47.1497 23.9269C49.7713 28.248 52.3784 32.5267 55 36.8619C53.762 37.4691 52.5677 38.0622 51.3152 38.6694C48.7081 34.3624 46.1011 30.0696 43.4649 25.7344Z" fill="#183891"/>
<path d="M24.9097 54.9934C23.9484 54.9793 23.4824 54.7392 23.3659 54.0755C23.3076 53.7649 23.3513 53.3271 23.5406 53.0871C24.531 51.8585 25.5651 50.6865 26.5992 49.5003C27.0361 49.006 28.1285 48.9354 28.6673 49.3167C29.148 49.6556 29.2936 50.2628 28.9586 50.7712C28.1576 51.9715 27.342 53.1577 26.4972 54.3297C26.1186 54.8804 25.5214 55.0358 24.9097 54.9934Z" fill="#183891"/>
<path d="M15.9234 48.413C16.0836 48.0741 16.171 47.6645 16.4186 47.4104C17.409 46.3795 18.4576 45.4052 19.4917 44.4167C19.9432 43.993 20.4967 43.9224 21.0647 44.1201C21.5453 44.2896 21.8657 44.6567 21.8512 45.1651C21.8366 45.4899 21.7201 45.8712 21.5162 46.1253C20.6132 47.2409 19.6519 48.3282 18.7052 49.4156C18.2537 49.9239 17.5109 50.0934 16.8701 49.8674C16.3021 49.6697 16.0253 49.1896 15.9234 48.413Z" fill="#183891"/>
<path d="M21.1666 52.5787C20.584 52.4799 20.1908 52.2539 19.9578 51.802C19.7247 51.3643 19.7393 50.8983 20.0597 50.5029C21.0647 49.3167 22.0696 48.1305 23.1037 46.9585C23.5698 46.436 24.3999 46.4219 24.9243 46.8596C25.4486 47.2974 25.536 48.0599 25.0553 48.6248C24.1087 49.7545 23.1474 50.8983 22.1424 51.9856C21.8948 52.268 21.487 52.3951 21.1666 52.5787Z" fill="#183891"/>
<path d="M16.8992 43.8095C16.8992 43.8942 16.9138 43.993 16.8992 44.0778C16.8264 44.7838 15.1369 46.4642 14.4232 46.549C13.7824 46.6196 13.2581 46.4078 12.9814 45.9135C12.6901 45.391 12.7483 44.8968 13.1124 44.4308C13.5057 43.9224 13.8844 43.4141 14.2922 42.9057C14.7145 42.3832 15.4136 42.1855 16.0399 42.4256C16.5934 42.6233 16.8992 43.1175 16.8992 43.8095Z" fill="#183891"/>
</svg>
